<mxfile host="Electron" modified="2024-03-23T21:02:10.221Z" agent="Mozilla/5.0 (Macintosh; Intel Mac OS X 10_15_7) AppleWebKit/537.36 (KHTML, like Gecko) draw.io/24.0.4 Chrome/120.0.6099.109 Electron/28.1.0 Safari/537.36" etag="PFmTbaS0kRI-xHxMnMXY" version="24.0.4" type="device">
  <diagram name="Page-1" id="alHhomIkzCUs_WkGdh4H">
    <mxGraphModel dx="2715" dy="1351" grid="1" gridSize="10" guides="1" tooltips="1" connect="1" arrows="1" fold="1" page="1" pageScale="1" pageWidth="850" pageHeight="1100" math="0" shadow="0">
      <root>
        <mxCell id="0" />
        <mxCell id="1" parent="0" />
        <mxCell id="uVS5eaiEl1lE-w0wh4RW-1" value="Person" style="ellipse;whiteSpace=wrap;html=1;aspect=fixed;" vertex="1" parent="1">
          <mxGeometry x="130" y="190" width="80" height="80" as="geometry" />
        </mxCell>
        <mxCell id="uVS5eaiEl1lE-w0wh4RW-2" value="Kayfabe&lt;br&gt;Persona" style="ellipse;whiteSpace=wrap;html=1;aspect=fixed;" vertex="1" parent="1">
          <mxGeometry x="290" y="290" width="80" height="80" as="geometry" />
        </mxCell>
        <mxCell id="uVS5eaiEl1lE-w0wh4RW-60" style="edgeStyle=orthogonalEdgeStyle;rounded=0;orthogonalLoop=1;jettySize=auto;html=1;exitX=0;exitY=0;exitDx=0;exitDy=0;entryX=0.5;entryY=0;entryDx=0;entryDy=0;curved=1;" edge="1" parent="1" source="uVS5eaiEl1lE-w0wh4RW-3" target="uVS5eaiEl1lE-w0wh4RW-4">
          <mxGeometry relative="1" as="geometry">
            <Array as="points">
              <mxPoint x="592" y="60" />
              <mxPoint x="20" y="60" />
            </Array>
          </mxGeometry>
        </mxCell>
        <mxCell id="uVS5eaiEl1lE-w0wh4RW-61" value="PART_OF" style="edgeLabel;html=1;align=center;verticalAlign=middle;resizable=0;points=[];" vertex="1" connectable="0" parent="uVS5eaiEl1lE-w0wh4RW-60">
          <mxGeometry x="-0.4218" y="2" relative="1" as="geometry">
            <mxPoint x="3" y="-2" as="offset" />
          </mxGeometry>
        </mxCell>
        <mxCell id="uVS5eaiEl1lE-w0wh4RW-3" value="Title" style="ellipse;whiteSpace=wrap;html=1;aspect=fixed;" vertex="1" parent="1">
          <mxGeometry x="630" y="50" width="80" height="80" as="geometry" />
        </mxCell>
        <mxCell id="uVS5eaiEl1lE-w0wh4RW-4" value="Promotion" style="ellipse;whiteSpace=wrap;html=1;aspect=fixed;" vertex="1" parent="1">
          <mxGeometry x="-20" y="360" width="80" height="80" as="geometry" />
        </mxCell>
        <mxCell id="uVS5eaiEl1lE-w0wh4RW-5" value="Event" style="ellipse;whiteSpace=wrap;html=1;aspect=fixed;" vertex="1" parent="1">
          <mxGeometry x="290" y="480" width="80" height="80" as="geometry" />
        </mxCell>
        <mxCell id="uVS5eaiEl1lE-w0wh4RW-6" value="HELD_BY" style="endArrow=classic;html=1;rounded=0;entryX=0.963;entryY=0.788;entryDx=0;entryDy=0;entryPerimeter=0;" edge="1" parent="1" target="uVS5eaiEl1lE-w0wh4RW-4">
          <mxGeometry width="50" height="50" relative="1" as="geometry">
            <mxPoint x="280" y="510" as="sourcePoint" />
            <mxPoint x="260" y="480" as="targetPoint" />
          </mxGeometry>
        </mxCell>
        <mxCell id="uVS5eaiEl1lE-w0wh4RW-7" value="Arena" style="ellipse;whiteSpace=wrap;html=1;aspect=fixed;" vertex="1" parent="1">
          <mxGeometry x="310" y="720" width="80" height="80" as="geometry" />
        </mxCell>
        <mxCell id="uVS5eaiEl1lE-w0wh4RW-8" value="HELD_AT" style="endArrow=classic;html=1;rounded=0;entryX=0.5;entryY=0;entryDx=0;entryDy=0;exitX=0.588;exitY=1;exitDx=0;exitDy=0;exitPerimeter=0;" edge="1" parent="1" source="uVS5eaiEl1lE-w0wh4RW-5" target="uVS5eaiEl1lE-w0wh4RW-7">
          <mxGeometry width="50" height="50" relative="1" as="geometry">
            <mxPoint x="380" y="610" as="sourcePoint" />
            <mxPoint x="430" y="560" as="targetPoint" />
          </mxGeometry>
        </mxCell>
        <mxCell id="uVS5eaiEl1lE-w0wh4RW-9" value="APPEARED_AT" style="endArrow=classic;html=1;rounded=0;exitX=0.5;exitY=1;exitDx=0;exitDy=0;entryX=0.5;entryY=0;entryDx=0;entryDy=0;" edge="1" parent="1" source="uVS5eaiEl1lE-w0wh4RW-2" target="uVS5eaiEl1lE-w0wh4RW-5">
          <mxGeometry x="-0.0041" width="50" height="50" relative="1" as="geometry">
            <mxPoint x="350" y="440" as="sourcePoint" />
            <mxPoint x="400" y="390" as="targetPoint" />
            <mxPoint as="offset" />
          </mxGeometry>
        </mxCell>
        <mxCell id="uVS5eaiEl1lE-w0wh4RW-11" value="Kayfabe&lt;br&gt;Persona" style="ellipse;whiteSpace=wrap;html=1;aspect=fixed;" vertex="1" parent="1">
          <mxGeometry x="560" y="480" width="80" height="80" as="geometry" />
        </mxCell>
        <mxCell id="uVS5eaiEl1lE-w0wh4RW-12" value="APPEARED_AT" style="endArrow=classic;html=1;rounded=0;exitX=0;exitY=0.5;exitDx=0;exitDy=0;entryX=1;entryY=0.5;entryDx=0;entryDy=0;" edge="1" parent="1" source="uVS5eaiEl1lE-w0wh4RW-11" target="uVS5eaiEl1lE-w0wh4RW-5">
          <mxGeometry width="50" height="50" relative="1" as="geometry">
            <mxPoint x="490" y="440" as="sourcePoint" />
            <mxPoint x="390" y="510" as="targetPoint" />
          </mxGeometry>
        </mxCell>
        <mxCell id="uVS5eaiEl1lE-w0wh4RW-13" value="Match" style="ellipse;whiteSpace=wrap;html=1;aspect=fixed;" vertex="1" parent="1">
          <mxGeometry x="520" y="270" width="80" height="80" as="geometry" />
        </mxCell>
        <mxCell id="uVS5eaiEl1lE-w0wh4RW-14" value="ON_CARD" style="endArrow=classic;html=1;rounded=0;exitX=0;exitY=1;exitDx=0;exitDy=0;" edge="1" parent="1" source="uVS5eaiEl1lE-w0wh4RW-13" target="uVS5eaiEl1lE-w0wh4RW-5">
          <mxGeometry width="50" height="50" relative="1" as="geometry">
            <mxPoint x="400" y="480" as="sourcePoint" />
            <mxPoint x="450" y="430" as="targetPoint" />
          </mxGeometry>
        </mxCell>
        <mxCell id="uVS5eaiEl1lE-w0wh4RW-15" value="WRESTLED_IN" style="endArrow=classic;html=1;rounded=0;exitX=0.5;exitY=0;exitDx=0;exitDy=0;" edge="1" parent="1" source="uVS5eaiEl1lE-w0wh4RW-11" target="uVS5eaiEl1lE-w0wh4RW-13">
          <mxGeometry width="50" height="50" relative="1" as="geometry">
            <mxPoint x="590" y="450" as="sourcePoint" />
            <mxPoint x="640" y="400" as="targetPoint" />
          </mxGeometry>
        </mxCell>
        <mxCell id="uVS5eaiEl1lE-w0wh4RW-16" value="WRESTLED_IN" style="endArrow=classic;html=1;rounded=0;exitX=1;exitY=0.5;exitDx=0;exitDy=0;entryX=-0.05;entryY=0.4;entryDx=0;entryDy=0;entryPerimeter=0;" edge="1" parent="1" source="uVS5eaiEl1lE-w0wh4RW-2" target="uVS5eaiEl1lE-w0wh4RW-13">
          <mxGeometry width="50" height="50" relative="1" as="geometry">
            <mxPoint x="390" y="320" as="sourcePoint" />
            <mxPoint x="440" y="270" as="targetPoint" />
          </mxGeometry>
        </mxCell>
        <mxCell id="uVS5eaiEl1lE-w0wh4RW-18" value="Kayfabe&lt;br&gt;Persona" style="ellipse;whiteSpace=wrap;html=1;aspect=fixed;" vertex="1" parent="1">
          <mxGeometry x="560" y="660" width="80" height="80" as="geometry" />
        </mxCell>
        <mxCell id="uVS5eaiEl1lE-w0wh4RW-19" value="APPEARED_AT" style="endArrow=classic;html=1;rounded=0;exitX=0;exitY=0.25;exitDx=0;exitDy=0;entryX=0.938;entryY=0.838;entryDx=0;entryDy=0;exitPerimeter=0;entryPerimeter=0;" edge="1" parent="1" source="uVS5eaiEl1lE-w0wh4RW-18" target="uVS5eaiEl1lE-w0wh4RW-5">
          <mxGeometry width="50" height="50" relative="1" as="geometry">
            <mxPoint x="570" y="530" as="sourcePoint" />
            <mxPoint x="380" y="530" as="targetPoint" />
          </mxGeometry>
        </mxCell>
        <mxCell id="uVS5eaiEl1lE-w0wh4RW-20" value="MANAGER_OF" style="endArrow=classic;html=1;rounded=0;exitX=0.5;exitY=0;exitDx=0;exitDy=0;entryX=0.5;entryY=1;entryDx=0;entryDy=0;" edge="1" parent="1" source="uVS5eaiEl1lE-w0wh4RW-18" target="uVS5eaiEl1lE-w0wh4RW-11">
          <mxGeometry width="50" height="50" relative="1" as="geometry">
            <mxPoint x="610" y="640" as="sourcePoint" />
            <mxPoint x="660" y="590" as="targetPoint" />
          </mxGeometry>
        </mxCell>
        <mxCell id="uVS5eaiEl1lE-w0wh4RW-21" value="PORTRAYED_BY" style="endArrow=classic;html=1;rounded=0;" edge="1" parent="1" source="uVS5eaiEl1lE-w0wh4RW-2" target="uVS5eaiEl1lE-w0wh4RW-1">
          <mxGeometry width="50" height="50" relative="1" as="geometry">
            <mxPoint x="250" y="290" as="sourcePoint" />
            <mxPoint x="300" y="240" as="targetPoint" />
          </mxGeometry>
        </mxCell>
        <mxCell id="uVS5eaiEl1lE-w0wh4RW-22" value="Reign" style="ellipse;whiteSpace=wrap;html=1;aspect=fixed;" vertex="1" parent="1">
          <mxGeometry x="440" y="130" width="80" height="80" as="geometry" />
        </mxCell>
        <mxCell id="uVS5eaiEl1lE-w0wh4RW-23" value="REIGN_OF" style="endArrow=classic;html=1;rounded=0;entryX=0.725;entryY=0.029;entryDx=0;entryDy=0;entryPerimeter=0;exitX=0;exitY=1;exitDx=0;exitDy=0;" edge="1" parent="1" source="uVS5eaiEl1lE-w0wh4RW-22" target="uVS5eaiEl1lE-w0wh4RW-2">
          <mxGeometry width="50" height="50" relative="1" as="geometry">
            <mxPoint x="370" y="180" as="sourcePoint" />
            <mxPoint x="400" y="220" as="targetPoint" />
          </mxGeometry>
        </mxCell>
        <mxCell id="uVS5eaiEl1lE-w0wh4RW-24" value="MATCH_FOR" style="endArrow=classic;html=1;rounded=0;exitX=0.788;exitY=0.063;exitDx=0;exitDy=0;exitPerimeter=0;entryX=0.25;entryY=0.95;entryDx=0;entryDy=0;entryPerimeter=0;" edge="1" parent="1" source="uVS5eaiEl1lE-w0wh4RW-13" target="uVS5eaiEl1lE-w0wh4RW-3">
          <mxGeometry width="50" height="50" relative="1" as="geometry">
            <mxPoint x="590" y="250" as="sourcePoint" />
            <mxPoint x="640" y="200" as="targetPoint" />
          </mxGeometry>
        </mxCell>
        <mxCell id="uVS5eaiEl1lE-w0wh4RW-26" value="" style="endArrow=classic;html=1;rounded=0;exitX=0.033;exitY=0.688;exitDx=0;exitDy=0;exitPerimeter=0;entryX=1;entryY=0.279;entryDx=0;entryDy=0;entryPerimeter=0;" edge="1" parent="1" source="uVS5eaiEl1lE-w0wh4RW-3" target="uVS5eaiEl1lE-w0wh4RW-22">
          <mxGeometry width="50" height="50" relative="1" as="geometry">
            <mxPoint x="520" y="220" as="sourcePoint" />
            <mxPoint x="520" y="250" as="targetPoint" />
          </mxGeometry>
        </mxCell>
        <mxCell id="uVS5eaiEl1lE-w0wh4RW-27" value="EMPLOYED_BY" style="endArrow=classic;html=1;rounded=0;exitX=0;exitY=1;exitDx=0;exitDy=0;entryX=0.767;entryY=0.004;entryDx=0;entryDy=0;entryPerimeter=0;" edge="1" parent="1" source="uVS5eaiEl1lE-w0wh4RW-1" target="uVS5eaiEl1lE-w0wh4RW-4">
          <mxGeometry width="50" height="50" relative="1" as="geometry">
            <mxPoint x="100" y="360" as="sourcePoint" />
            <mxPoint x="150" y="310" as="targetPoint" />
          </mxGeometry>
        </mxCell>
        <mxCell id="uVS5eaiEl1lE-w0wh4RW-28" value="PART_OF" style="endArrow=classic;html=1;rounded=0;exitX=0.075;exitY=0.775;exitDx=0;exitDy=0;exitPerimeter=0;entryX=1.025;entryY=0.3;entryDx=0;entryDy=0;entryPerimeter=0;" edge="1" parent="1" source="uVS5eaiEl1lE-w0wh4RW-2" target="uVS5eaiEl1lE-w0wh4RW-4">
          <mxGeometry width="50" height="50" relative="1" as="geometry">
            <mxPoint x="210" y="430" as="sourcePoint" />
            <mxPoint x="260" y="380" as="targetPoint" />
          </mxGeometry>
        </mxCell>
        <mxCell id="uVS5eaiEl1lE-w0wh4RW-29" value="Heel Run" style="ellipse;whiteSpace=wrap;html=1;aspect=fixed;" vertex="1" parent="1">
          <mxGeometry x="810" y="610" width="80" height="80" as="geometry" />
        </mxCell>
        <mxCell id="uVS5eaiEl1lE-w0wh4RW-30" value="Face Run" style="ellipse;whiteSpace=wrap;html=1;aspect=fixed;" vertex="1" parent="1">
          <mxGeometry x="280" y="90" width="80" height="80" as="geometry" />
        </mxCell>
        <mxCell id="uVS5eaiEl1lE-w0wh4RW-31" value="" style="endArrow=classic;html=1;rounded=0;entryX=0.5;entryY=1;entryDx=0;entryDy=0;" edge="1" parent="1" source="uVS5eaiEl1lE-w0wh4RW-2" target="uVS5eaiEl1lE-w0wh4RW-30">
          <mxGeometry width="50" height="50" relative="1" as="geometry">
            <mxPoint x="660" y="710" as="sourcePoint" />
            <mxPoint x="710" y="660" as="targetPoint" />
          </mxGeometry>
        </mxCell>
        <mxCell id="uVS5eaiEl1lE-w0wh4RW-32" value="" style="endArrow=classic;html=1;rounded=0;exitX=1.013;exitY=0.738;exitDx=0;exitDy=0;exitPerimeter=0;entryX=0;entryY=0.4;entryDx=0;entryDy=0;entryPerimeter=0;" edge="1" parent="1" source="uVS5eaiEl1lE-w0wh4RW-11" target="uVS5eaiEl1lE-w0wh4RW-29">
          <mxGeometry width="50" height="50" relative="1" as="geometry">
            <mxPoint x="700" y="560" as="sourcePoint" />
            <mxPoint x="750" y="510" as="targetPoint" />
          </mxGeometry>
        </mxCell>
        <mxCell id="uVS5eaiEl1lE-w0wh4RW-33" value="RINGSIDE_AT" style="endArrow=classic;html=1;rounded=0;exitX=1;exitY=0.5;exitDx=0;exitDy=0;entryX=1;entryY=0.5;entryDx=0;entryDy=0;edgeStyle=orthogonalEdgeStyle;curved=1;" edge="1" parent="1" source="uVS5eaiEl1lE-w0wh4RW-18" target="uVS5eaiEl1lE-w0wh4RW-13">
          <mxGeometry width="50" height="50" relative="1" as="geometry">
            <mxPoint x="718.96" y="660" as="sourcePoint" />
            <mxPoint x="680" y="308" as="targetPoint" />
            <Array as="points">
              <mxPoint x="730" y="700" />
              <mxPoint x="730" y="310" />
            </Array>
          </mxGeometry>
        </mxCell>
        <mxCell id="uVS5eaiEl1lE-w0wh4RW-34" value="Face Run" style="ellipse;whiteSpace=wrap;html=1;aspect=fixed;" vertex="1" parent="1">
          <mxGeometry x="730" y="750" width="80" height="80" as="geometry" />
        </mxCell>
        <mxCell id="uVS5eaiEl1lE-w0wh4RW-35" value="" style="endArrow=classic;html=1;rounded=0;exitX=0.825;exitY=0.975;exitDx=0;exitDy=0;exitPerimeter=0;" edge="1" parent="1" target="uVS5eaiEl1lE-w0wh4RW-34" source="uVS5eaiEl1lE-w0wh4RW-11">
          <mxGeometry width="50" height="50" relative="1" as="geometry">
            <mxPoint x="620" y="590.25" as="sourcePoint" />
            <mxPoint x="683" y="629.75" as="targetPoint" />
          </mxGeometry>
        </mxCell>
        <mxCell id="uVS5eaiEl1lE-w0wh4RW-42" value="Kayfabe&lt;br&gt;Persona" style="ellipse;whiteSpace=wrap;html=1;aspect=fixed;" vertex="1" parent="1">
          <mxGeometry x="440" y="800" width="80" height="80" as="geometry" />
        </mxCell>
        <mxCell id="uVS5eaiEl1lE-w0wh4RW-43" value="Tag Team" style="ellipse;whiteSpace=wrap;html=1;aspect=fixed;" vertex="1" parent="1">
          <mxGeometry x="640" y="880" width="80" height="80" as="geometry" />
        </mxCell>
        <mxCell id="uVS5eaiEl1lE-w0wh4RW-44" value="MEMBER_OF" style="endArrow=classic;html=1;rounded=0;exitX=0.5;exitY=1;exitDx=0;exitDy=0;entryX=0.5;entryY=0;entryDx=0;entryDy=0;" edge="1" parent="1" source="uVS5eaiEl1lE-w0wh4RW-18" target="uVS5eaiEl1lE-w0wh4RW-43">
          <mxGeometry width="50" height="50" relative="1" as="geometry">
            <mxPoint x="620" y="800" as="sourcePoint" />
            <mxPoint x="670" y="750" as="targetPoint" />
          </mxGeometry>
        </mxCell>
        <mxCell id="uVS5eaiEl1lE-w0wh4RW-45" value="MEMBER_OF" style="endArrow=classic;html=1;rounded=0;entryX=0;entryY=0.5;entryDx=0;entryDy=0;" edge="1" parent="1" source="uVS5eaiEl1lE-w0wh4RW-42" target="uVS5eaiEl1lE-w0wh4RW-43">
          <mxGeometry width="50" height="50" relative="1" as="geometry">
            <mxPoint x="500" y="950" as="sourcePoint" />
            <mxPoint x="550" y="900" as="targetPoint" />
          </mxGeometry>
        </mxCell>
        <mxCell id="uVS5eaiEl1lE-w0wh4RW-48" value="Broadcast" style="ellipse;whiteSpace=wrap;html=1;aspect=fixed;" vertex="1" parent="1">
          <mxGeometry x="160" y="590" width="80" height="80" as="geometry" />
        </mxCell>
        <mxCell id="uVS5eaiEl1lE-w0wh4RW-49" value="Media&lt;div&gt;Channel&lt;/div&gt;" style="ellipse;whiteSpace=wrap;html=1;aspect=fixed;" vertex="1" parent="1">
          <mxGeometry x="80" y="720" width="80" height="80" as="geometry" />
        </mxCell>
        <mxCell id="uVS5eaiEl1lE-w0wh4RW-50" value="Rights&lt;div&gt;Deal&lt;/div&gt;" style="ellipse;whiteSpace=wrap;html=1;aspect=fixed;" vertex="1" parent="1">
          <mxGeometry x="-230" y="580" width="80" height="80" as="geometry" />
        </mxCell>
        <mxCell id="uVS5eaiEl1lE-w0wh4RW-51" value="" style="endArrow=classic;html=1;rounded=0;exitX=0;exitY=1;exitDx=0;exitDy=0;" edge="1" parent="1" source="uVS5eaiEl1lE-w0wh4RW-5" target="uVS5eaiEl1lE-w0wh4RW-48">
          <mxGeometry width="50" height="50" relative="1" as="geometry">
            <mxPoint x="200" y="570" as="sourcePoint" />
            <mxPoint x="250" y="520" as="targetPoint" />
          </mxGeometry>
        </mxCell>
        <mxCell id="uVS5eaiEl1lE-w0wh4RW-52" value="AVAILABLE_ON" style="endArrow=classic;html=1;rounded=0;exitX=0;exitY=1;exitDx=0;exitDy=0;" edge="1" parent="1" source="uVS5eaiEl1lE-w0wh4RW-48" target="uVS5eaiEl1lE-w0wh4RW-49">
          <mxGeometry width="50" height="50" relative="1" as="geometry">
            <mxPoint x="251" y="690" as="sourcePoint" />
            <mxPoint x="180" y="747" as="targetPoint" />
          </mxGeometry>
        </mxCell>
        <mxCell id="uVS5eaiEl1lE-w0wh4RW-53" value="ENTERED_INTO" style="endArrow=classic;html=1;rounded=0;" edge="1" parent="1" source="uVS5eaiEl1lE-w0wh4RW-4" target="uVS5eaiEl1lE-w0wh4RW-50">
          <mxGeometry width="50" height="50" relative="1" as="geometry">
            <mxPoint x="-70" y="500" as="sourcePoint" />
            <mxPoint x="-20" y="450" as="targetPoint" />
          </mxGeometry>
        </mxCell>
        <mxCell id="uVS5eaiEl1lE-w0wh4RW-54" value="ENTERED_INTO" style="endArrow=classic;html=1;rounded=0;entryX=0.942;entryY=0.704;entryDx=0;entryDy=0;entryPerimeter=0;exitX=0;exitY=0.625;exitDx=0;exitDy=0;exitPerimeter=0;" edge="1" parent="1" source="uVS5eaiEl1lE-w0wh4RW-49" target="uVS5eaiEl1lE-w0wh4RW-50">
          <mxGeometry width="50" height="50" relative="1" as="geometry">
            <mxPoint x="90" y="710" as="sourcePoint" />
            <mxPoint x="80" y="670" as="targetPoint" />
          </mxGeometry>
        </mxCell>
        <mxCell id="uVS5eaiEl1lE-w0wh4RW-55" value="Article" style="ellipse;whiteSpace=wrap;html=1;aspect=fixed;" vertex="1" parent="1">
          <mxGeometry x="130" y="900" width="80" height="80" as="geometry" />
        </mxCell>
        <mxCell id="uVS5eaiEl1lE-w0wh4RW-56" value="RECAPPED_BY" style="endArrow=classic;html=1;rounded=0;exitX=0.342;exitY=0.988;exitDx=0;exitDy=0;exitPerimeter=0;entryX=0.5;entryY=0;entryDx=0;entryDy=0;" edge="1" parent="1" source="uVS5eaiEl1lE-w0wh4RW-5" target="uVS5eaiEl1lE-w0wh4RW-55">
          <mxGeometry width="50" height="50" relative="1" as="geometry">
            <mxPoint x="230" y="740" as="sourcePoint" />
            <mxPoint x="280" y="690" as="targetPoint" />
          </mxGeometry>
        </mxCell>
        <mxCell id="uVS5eaiEl1lE-w0wh4RW-57" value="MENTIONED_IN" style="endArrow=classic;html=1;rounded=0;exitX=0.375;exitY=0.971;exitDx=0;exitDy=0;exitPerimeter=0;entryX=1;entryY=0.371;entryDx=0;entryDy=0;entryPerimeter=0;" edge="1" parent="1" source="uVS5eaiEl1lE-w0wh4RW-7" target="uVS5eaiEl1lE-w0wh4RW-55">
          <mxGeometry width="50" height="50" relative="1" as="geometry">
            <mxPoint x="370" y="950" as="sourcePoint" />
            <mxPoint x="420" y="900" as="targetPoint" />
          </mxGeometry>
        </mxCell>
        <mxCell id="uVS5eaiEl1lE-w0wh4RW-58" value="MENTIONED_IN" style="endArrow=classic;html=1;rounded=0;exitX=0.033;exitY=0.754;exitDx=0;exitDy=0;exitPerimeter=0;entryX=1;entryY=0.5;entryDx=0;entryDy=0;" edge="1" parent="1" source="uVS5eaiEl1lE-w0wh4RW-18" target="uVS5eaiEl1lE-w0wh4RW-55">
          <mxGeometry width="50" height="50" relative="1" as="geometry">
            <mxPoint x="430" y="740" as="sourcePoint" />
            <mxPoint x="480" y="690" as="targetPoint" />
          </mxGeometry>
        </mxCell>
        <mxCell id="uVS5eaiEl1lE-w0wh4RW-62" value="TV&lt;br&gt;Program" style="ellipse;whiteSpace=wrap;html=1;aspect=fixed;" vertex="1" parent="1">
          <mxGeometry x="-10" y="500" width="80" height="80" as="geometry" />
        </mxCell>
        <mxCell id="uVS5eaiEl1lE-w0wh4RW-63" value="EPISODE_OF" style="endArrow=classic;html=1;rounded=0;entryX=1;entryY=1;entryDx=0;entryDy=0;exitX=0;exitY=0;exitDx=0;exitDy=0;" edge="1" parent="1" source="uVS5eaiEl1lE-w0wh4RW-48" target="uVS5eaiEl1lE-w0wh4RW-62">
          <mxGeometry width="50" height="50" relative="1" as="geometry">
            <mxPoint x="90" y="650" as="sourcePoint" />
            <mxPoint x="160" y="570" as="targetPoint" />
          </mxGeometry>
        </mxCell>
        <mxCell id="uVS5eaiEl1lE-w0wh4RW-64" value="INCLUDED_IN" style="endArrow=classic;html=1;rounded=0;entryX=1;entryY=0.5;entryDx=0;entryDy=0;exitX=-0.025;exitY=0.638;exitDx=0;exitDy=0;exitPerimeter=0;" edge="1" parent="1" source="uVS5eaiEl1lE-w0wh4RW-62" target="uVS5eaiEl1lE-w0wh4RW-50">
          <mxGeometry width="50" height="50" relative="1" as="geometry">
            <mxPoint x="-80" y="590" as="sourcePoint" />
            <mxPoint x="-30" y="540" as="targetPoint" />
          </mxGeometry>
        </mxCell>
        <mxCell id="uVS5eaiEl1lE-w0wh4RW-65" value="Face Run" style="ellipse;whiteSpace=wrap;html=1;aspect=fixed;" vertex="1" parent="1">
          <mxGeometry x="950" y="470" width="80" height="80" as="geometry" />
        </mxCell>
        <mxCell id="uVS5eaiEl1lE-w0wh4RW-66" value="NEXT" style="endArrow=classic;html=1;rounded=0;entryX=0;entryY=1;entryDx=0;entryDy=0;" edge="1" parent="1" target="uVS5eaiEl1lE-w0wh4RW-65">
          <mxGeometry width="50" height="50" relative="1" as="geometry">
            <mxPoint x="880" y="620" as="sourcePoint" />
            <mxPoint x="930" y="570" as="targetPoint" />
          </mxGeometry>
        </mxCell>
        <mxCell id="uVS5eaiEl1lE-w0wh4RW-68" value="" style="endArrow=classic;html=1;rounded=0;exitX=1;exitY=0.5;exitDx=0;exitDy=0;entryX=0;entryY=0.5;entryDx=0;entryDy=0;" edge="1" parent="1" source="uVS5eaiEl1lE-w0wh4RW-11" target="uVS5eaiEl1lE-w0wh4RW-65">
          <mxGeometry width="50" height="50" relative="1" as="geometry">
            <mxPoint x="643" y="454" as="sourcePoint" />
            <mxPoint x="823" y="586" as="targetPoint" />
          </mxGeometry>
        </mxCell>
        <mxCell id="uVS5eaiEl1lE-w0wh4RW-69" value="" style="endArrow=classic;html=1;rounded=0;exitX=0.692;exitY=0.046;exitDx=0;exitDy=0;exitPerimeter=0;entryX=0.275;entryY=0.979;entryDx=0;entryDy=0;entryPerimeter=0;" edge="1" parent="1" source="uVS5eaiEl1lE-w0wh4RW-34" target="uVS5eaiEl1lE-w0wh4RW-29">
          <mxGeometry width="50" height="50" relative="1" as="geometry">
            <mxPoint x="790" y="750" as="sourcePoint" />
            <mxPoint x="840" y="700" as="targetPoint" />
          </mxGeometry>
        </mxCell>
        <mxCell id="uVS5eaiEl1lE-w0wh4RW-70" value="Reign" style="ellipse;whiteSpace=wrap;html=1;aspect=fixed;" vertex="1" parent="1">
          <mxGeometry x="790" y="230" width="80" height="80" as="geometry" />
        </mxCell>
        <mxCell id="uVS5eaiEl1lE-w0wh4RW-72" value="REIGN_OF" style="endArrow=classic;html=1;rounded=0;exitX=0;exitY=1;exitDx=0;exitDy=0;" edge="1" parent="1" source="uVS5eaiEl1lE-w0wh4RW-70" target="uVS5eaiEl1lE-w0wh4RW-11">
          <mxGeometry width="50" height="50" relative="1" as="geometry">
            <mxPoint x="660" y="440" as="sourcePoint" />
            <mxPoint x="800" y="430" as="targetPoint" />
          </mxGeometry>
        </mxCell>
        <mxCell id="uVS5eaiEl1lE-w0wh4RW-73" value="" style="endArrow=classic;html=1;rounded=0;exitX=0.392;exitY=-0.021;exitDx=0;exitDy=0;exitPerimeter=0;" edge="1" parent="1" source="uVS5eaiEl1lE-w0wh4RW-70" target="uVS5eaiEl1lE-w0wh4RW-3">
          <mxGeometry width="50" height="50" relative="1" as="geometry">
            <mxPoint x="740" y="160" as="sourcePoint" />
            <mxPoint x="790" y="110" as="targetPoint" />
          </mxGeometry>
        </mxCell>
        <mxCell id="uVS5eaiEl1lE-w0wh4RW-74" value="DURING" style="endArrow=classic;html=1;rounded=0;exitX=1;exitY=1;exitDx=0;exitDy=0;entryX=0.358;entryY=0.029;entryDx=0;entryDy=0;entryPerimeter=0;" edge="1" parent="1" source="uVS5eaiEl1lE-w0wh4RW-70" target="uVS5eaiEl1lE-w0wh4RW-65">
          <mxGeometry width="50" height="50" relative="1" as="geometry">
            <mxPoint x="970" y="340" as="sourcePoint" />
            <mxPoint x="1020" y="290" as="targetPoint" />
          </mxGeometry>
        </mxCell>
        <mxCell id="uVS5eaiEl1lE-w0wh4RW-75" value="Address" style="ellipse;whiteSpace=wrap;html=1;aspect=fixed;" vertex="1" parent="1">
          <mxGeometry x="310" y="1010" width="80" height="80" as="geometry" />
        </mxCell>
        <mxCell id="uVS5eaiEl1lE-w0wh4RW-76" value="LOCATED_AT" style="endArrow=classic;html=1;rounded=0;exitX=0.5;exitY=1;exitDx=0;exitDy=0;entryX=0.5;entryY=0;entryDx=0;entryDy=0;" edge="1" parent="1" source="uVS5eaiEl1lE-w0wh4RW-7" target="uVS5eaiEl1lE-w0wh4RW-75">
          <mxGeometry width="50" height="50" relative="1" as="geometry">
            <mxPoint x="330" y="970" as="sourcePoint" />
            <mxPoint x="380" y="920" as="targetPoint" />
          </mxGeometry>
        </mxCell>
        <mxCell id="uVS5eaiEl1lE-w0wh4RW-77" value="" style="endArrow=classic;html=1;rounded=0;exitX=1.008;exitY=0.679;exitDx=0;exitDy=0;exitPerimeter=0;" edge="1" parent="1" source="uVS5eaiEl1lE-w0wh4RW-75" target="uVS5eaiEl1lE-w0wh4RW-78">
          <mxGeometry width="50" height="50" relative="1" as="geometry">
            <mxPoint x="420" y="1130" as="sourcePoint" />
            <mxPoint x="500" y="1120" as="targetPoint" />
          </mxGeometry>
        </mxCell>
        <mxCell id="uVS5eaiEl1lE-w0wh4RW-78" value="City" style="ellipse;whiteSpace=wrap;html=1;aspect=fixed;" vertex="1" parent="1">
          <mxGeometry x="460" y="1080" width="80" height="80" as="geometry" />
        </mxCell>
        <mxCell id="uVS5eaiEl1lE-w0wh4RW-79" value="State" style="ellipse;whiteSpace=wrap;html=1;aspect=fixed;" vertex="1" parent="1">
          <mxGeometry x="425" y="1230" width="80" height="80" as="geometry" />
        </mxCell>
        <mxCell id="uVS5eaiEl1lE-w0wh4RW-80" value="" style="endArrow=classic;html=1;rounded=0;exitX=0.5;exitY=1;exitDx=0;exitDy=0;entryX=0.5;entryY=0;entryDx=0;entryDy=0;" edge="1" parent="1" source="uVS5eaiEl1lE-w0wh4RW-78" target="uVS5eaiEl1lE-w0wh4RW-79">
          <mxGeometry width="50" height="50" relative="1" as="geometry">
            <mxPoint x="401" y="1074" as="sourcePoint" />
            <mxPoint x="474" y="1112" as="targetPoint" />
          </mxGeometry>
        </mxCell>
        <mxCell id="uVS5eaiEl1lE-w0wh4RW-81" value="Country" style="ellipse;whiteSpace=wrap;html=1;aspect=fixed;" vertex="1" parent="1">
          <mxGeometry x="540" y="1410" width="80" height="80" as="geometry" />
        </mxCell>
        <mxCell id="uVS5eaiEl1lE-w0wh4RW-82" value="" style="endArrow=classic;html=1;rounded=0;exitX=0.5;exitY=1;exitDx=0;exitDy=0;" edge="1" parent="1" target="uVS5eaiEl1lE-w0wh4RW-81" source="uVS5eaiEl1lE-w0wh4RW-79">
          <mxGeometry width="50" height="50" relative="1" as="geometry">
            <mxPoint x="470" y="1320" as="sourcePoint" />
            <mxPoint x="699" y="1162" as="targetPoint" />
          </mxGeometry>
        </mxCell>
      </root>
    </mxGraphModel>
  </diagram>
</mxfile>
